<svg width="14" height="14" viewBox="0 0 14 14" fill="none" xmlns="http://www.w3.org/2000/svg">
<path fill-rule="evenodd" clip-rule="evenodd" d="M6.97021 0.000444898C7.59872 -0.00254072 7.92043 0.00940184 8.10213 0.039258C8.24213 0.0631429 8.49532 0.116884 8.66809 0.155697C8.84085 0.197496 9.12085 0.281093 9.29362 0.340805C9.46638 0.403503 9.73447 0.508 9.88936 0.579655C10.0443 0.648324 10.3064 0.782676 10.4702 0.878216C10.634 0.973756 10.8753 1.12602 11.0064 1.21858C11.1374 1.31113 11.3579 1.48131 11.4979 1.59775C11.6379 1.71419 11.8911 1.95602 12.0638 2.13516C12.2366 2.3143 12.4719 2.58897 12.5881 2.74423C12.7013 2.89948 12.8651 3.13534 12.9485 3.26671C13.0319 3.39808 13.1749 3.65782 13.2672 3.84293C13.3596 4.02506 13.4698 4.26689 13.5115 4.37736C13.5562 4.49081 13.6277 4.70279 13.6753 4.84909C13.723 4.99538 13.7974 5.27304 13.8391 5.46114C13.8809 5.64923 13.9345 5.95973 13.9583 6.14783C13.9821 6.33592 14 6.7151 14 6.99276C14 7.27042 13.9791 7.64661 13.9553 7.84067C13.9285 8.03474 13.8809 8.32136 13.8451 8.47661C13.8123 8.63186 13.7468 8.88863 13.6991 9.04388C13.6485 9.19913 13.577 9.41409 13.5353 9.52158C13.4906 9.62906 13.3864 9.86194 13.303 10.0441C13.2166 10.2262 13.0617 10.5068 12.9604 10.671C12.8562 10.8352 12.6804 11.092 12.5702 11.2383C12.46 11.3846 12.2366 11.6473 12.0757 11.8175C11.9119 11.9877 11.6528 12.2355 11.4979 12.3669C11.343 12.4952 11.054 12.7102 10.8574 12.8416C10.6609 12.9729 10.3451 13.1551 10.1574 13.2506C9.96979 13.3432 9.7017 13.4656 9.5617 13.5223C9.4217 13.576 9.18638 13.6596 9.04043 13.7044C8.89447 13.7462 8.6383 13.8149 8.47447 13.8507C8.31064 13.8865 8.0217 13.9343 7.83404 13.9582C7.64638 13.9821 7.27106 14 7 14C6.72894 14 6.35362 13.9821 6.16596 13.9582C5.9783 13.9343 5.68936 13.8865 5.52553 13.8507C5.3617 13.8149 5.10553 13.7462 4.95957 13.7044C4.81362 13.6596 4.5783 13.576 4.4383 13.5223C4.2983 13.4656 4.03021 13.3432 3.84255 13.2506C3.65489 13.1551 3.33915 12.9729 3.14255 12.8416C2.94596 12.7102 2.65702 12.4952 2.50213 12.3669C2.34723 12.2355 2.08809 11.9877 1.92426 11.8175C1.7634 11.6473 1.54 11.3846 1.42979 11.2383C1.31957 11.092 1.14383 10.8352 1.03957 10.671C0.938298 10.5068 0.783404 10.2262 0.697021 10.0441C0.613617 9.86194 0.509362 9.62906 0.464681 9.52158C0.422979 9.41409 0.351489 9.19913 0.300851 9.04388C0.253191 8.88863 0.18766 8.63186 0.154894 8.47661C0.119149 8.32136 0.0714894 8.03474 0.0446809 7.84067C0.0208511 7.64661 0 7.27042 0 6.99276C0 6.7151 0.0178724 6.33592 0.0417022 6.14783C0.065532 5.95973 0.119149 5.64923 0.160851 5.46114C0.202553 5.27304 0.277021 4.99538 0.324681 4.84909C0.37234 4.70279 0.44383 4.49081 0.488511 4.37736C0.530213 4.26689 0.640426 4.02506 0.732766 3.84293C0.825106 3.65782 0.968085 3.39808 1.05149 3.26671C1.13489 3.13534 1.29872 2.89948 1.41191 2.74423C1.52809 2.58897 1.7634 2.3143 1.93617 2.13516C2.10894 1.95602 2.36213 1.71419 2.50213 1.59775C2.64213 1.48131 2.86255 1.31113 2.99362 1.21858C3.12468 1.12602 3.36596 0.973756 3.52979 0.878216C3.69362 0.782676 3.95574 0.648324 4.11064 0.579655C4.26553 0.508 4.53362 0.403503 4.70638 0.340805C4.87915 0.281093 5.15915 0.197496 5.33191 0.155697C5.50468 0.113898 5.74596 0.0631429 5.86809 0.0422436C6.01404 0.0183586 6.39532 0.00343051 6.97021 0.000444898ZM3.57745 1.26635C3.57447 1.28127 3.63702 1.30217 3.71447 1.31113C3.85447 1.32606 3.85745 1.32904 3.85149 1.42458L3.84255 1.52012C4.18511 1.53505 4.21192 1.54401 4.23277 1.60372C4.25957 1.6694 4.2566 1.6694 4.02128 1.6694C3.80681 1.6694 3.78 1.66343 3.76809 1.60969C3.75915 1.56789 3.71447 1.54102 3.62809 1.52012C3.5566 1.50221 3.45532 1.46937 3.40468 1.44548C3.35106 1.4216 3.26766 1.4007 3.21702 1.4007C3.15447 1.4007 3.05915 1.45444 2.8834 1.58879C2.74936 1.6903 2.49319 1.91422 2.31447 2.08739C2.13574 2.26056 1.87957 2.53523 1.74851 2.69944C1.61745 2.86365 1.42681 3.12638 1.32553 3.28164C1.22426 3.43689 1.0783 3.68768 1.00085 3.83398C0.923404 3.98027 0.819149 4.19822 0.771489 4.31167C0.72383 4.42513 0.685106 4.55351 0.685106 4.59531C0.685106 4.65502 0.714894 4.68488 0.828085 4.74459L0.968085 4.81923C0.997872 5.40441 1.00383 5.42531 1.12596 5.6343C1.24213 5.83732 1.25702 5.84927 1.35532 5.84927C1.43872 5.84927 1.46255 5.83732 1.47447 5.7806C1.4834 5.7388 1.44766 5.6552 1.37021 5.53578C1.30766 5.43725 1.24213 5.3238 1.22723 5.282C1.20936 5.2402 1.19447 5.15362 1.19149 5.08793C1.18851 5.02225 1.18553 4.9506 1.18851 4.9297C1.19149 4.91178 1.22426 4.89387 1.26596 4.89387C1.33447 4.89387 1.3434 4.9088 1.37021 5.09391C1.39702 5.27006 1.42681 5.33574 1.59064 5.58056C1.77532 5.86121 1.7783 5.8642 1.73362 5.95376C1.68894 6.04035 1.69191 6.0493 1.79021 6.20456C1.84681 6.29412 1.89745 6.37772 1.90638 6.38966C1.91532 6.40459 2.04936 6.44639 2.20426 6.4852C2.44851 6.5479 2.49021 6.55089 2.51702 6.51207C2.53787 6.48222 2.5766 6.47326 2.66 6.48819C2.76128 6.50312 2.77021 6.51207 2.7583 6.58671C2.7434 6.66733 2.74936 6.67031 2.97277 6.72107C3.20213 6.77182 3.20213 6.77182 3.41064 7.0047C3.52383 7.13308 3.63106 7.24654 3.64894 7.25848C3.66383 7.27042 3.74723 7.28236 3.82766 7.28236C3.91106 7.28236 4.02128 7.29132 4.07489 7.30326C4.15234 7.32416 4.17319 7.34506 4.18511 7.41672C4.19106 7.46449 4.20298 7.55704 4.21192 7.61675C4.22979 7.72722 4.22383 7.73319 4.05404 7.8556L3.8783 7.98398C3.84851 8.28553 3.83064 8.42585 3.81574 8.49154C3.79192 8.60798 3.79489 8.61395 4.05404 8.93938C4.23277 9.1633 4.32213 9.30064 4.33404 9.37229C4.34894 9.46186 4.36681 9.48276 4.47702 9.51859C4.54553 9.54247 4.69149 9.62607 4.80468 9.7037L5.00426 9.84999C5.00426 10.9577 5.01021 11.0442 5.04894 11.0442C5.07277 11.0442 5.09958 11.0622 5.11149 11.0801C5.12043 11.101 5.10553 11.2323 5.0817 11.3727L5.03404 11.6264L5.27234 11.9399L5.2366 12.4923C5.5166 12.9849 5.60298 13.0954 5.75787 13.2267L5.95745 13.4029C6.3417 13.4029 6.37745 13.3939 6.38638 13.3491C6.39234 13.3163 6.33872 13.2476 6.2434 13.1581L6.09149 13.0207C6.14809 12.8087 6.16596 12.7132 6.16596 12.6714C6.16596 12.6087 6.15106 12.5968 6.08553 12.5968C6.03787 12.5997 5.9783 12.5759 5.95149 12.546C5.9217 12.5161 5.89787 12.4803 5.89787 12.4624C5.89787 12.4445 5.93064 12.3997 5.97234 12.3579C6.01404 12.3161 6.04681 12.2534 6.04681 12.2146C6.04681 12.1708 6.02993 12.1489 5.99617 12.1489C5.96638 12.1519 5.92468 12.131 5.90681 12.1041C5.88298 12.0773 5.87702 12.0444 5.89489 12.0205C5.90979 12.0026 5.97234 11.9758 6.03489 11.9668C6.10043 11.9578 6.2434 11.9071 6.35957 11.8563C6.52936 11.7787 6.57702 11.7399 6.62468 11.6473C6.65447 11.5876 6.78255 11.4025 6.91064 11.2383L7.14 10.9397C7.03575 10.5247 7.03574 10.5218 7.0983 10.4113L7.16383 10.2978C7.57192 10.2978 7.58681 10.2919 7.70596 10.1844L7.83106 10.0739L7.9234 9.23794C8.16766 8.93938 8.22426 8.84085 8.23617 8.76024L8.25702 8.64082C8.0217 8.56916 7.98298 8.53632 7.90851 8.41391L7.81915 8.26762C7.25617 8.26762 7.1966 8.25567 6.97915 8.16909L6.73191 8.07355C6.70809 7.81977 6.66936 7.68542 6.63064 7.61078C6.56511 7.48538 6.55319 7.47643 6.43106 7.46747C6.35957 7.46449 6.25532 7.45553 6.20468 7.44657C6.12128 7.43463 6.08553 7.3988 5.9783 7.22862C5.88298 7.08233 5.82043 7.01963 5.74596 6.98977C5.68936 6.96887 5.6417 6.95395 5.63872 6.95395C5.63277 6.95395 5.62383 6.98082 5.61489 7.01366C5.60298 7.06441 5.57617 7.07337 5.40638 7.07337C5.2217 7.07337 5.20979 7.07038 5.13234 6.96887C5.06085 6.87632 5.02213 6.85841 4.8434 6.82556C4.64979 6.79272 4.63787 6.79272 4.59021 6.85243C4.5634 6.88528 4.48894 6.97484 4.4234 7.05247L4.30426 7.19578C3.89021 7.12413 3.75915 7.09128 3.75021 7.07934C3.7383 7.0674 3.72638 6.93603 3.72043 6.78376C3.71447 6.63448 3.70255 6.50312 3.69362 6.49416C3.68468 6.4852 3.60426 6.4643 3.51489 6.44639C3.42553 6.42848 3.34213 6.40758 3.33021 6.39862C3.31532 6.39265 3.33915 6.31801 3.38085 6.2374C3.43447 6.12992 3.44936 6.06722 3.43447 6.01049L3.41064 5.93286C2.96681 6.23441 2.89532 6.26725 2.8 6.26725C2.73447 6.26725 2.65106 6.25531 2.61532 6.24038C2.5766 6.22844 2.52298 6.16276 2.49021 6.10006C2.44553 6.00153 2.43957 5.96272 2.46638 5.84927C2.48426 5.77463 2.54383 5.6343 2.59745 5.53578C2.68979 5.37157 2.7166 5.34768 2.91915 5.24617L3.14255 5.1357L3.93192 5.13272C3.93192 5.37455 3.94085 5.39247 4.03617 5.43725C4.09277 5.46711 4.15234 5.49099 4.17021 5.49099C4.18809 5.49099 4.2 5.40441 4.2 5.28797C4.19702 5.09391 4.2 5.08495 4.31021 4.98344C4.37277 4.92671 4.51574 4.81923 4.62596 4.74459C4.79574 4.63114 4.83149 4.59232 4.84936 4.50574C4.86128 4.4311 4.92979 4.33556 5.07872 4.18329C5.21872 4.03401 5.35872 3.92354 5.50468 3.84592C5.62085 3.78322 5.71915 3.71157 5.71915 3.69067C5.72213 3.67275 5.79064 3.59513 5.87404 3.52049C6.02298 3.38912 6.02596 3.38613 6.1034 3.4339C6.17489 3.47869 6.18383 3.47869 6.21957 3.42793C6.23745 3.39509 6.24638 3.36523 6.23447 3.35926C6.21957 3.35329 6.17489 3.34135 6.13021 3.32941C6.07064 3.31746 6.04681 3.29358 6.04681 3.24282C6.04681 3.207 6.0617 3.15923 6.08255 3.13833C6.1034 3.12041 6.16298 3.1025 6.2166 3.1025C6.29106 3.1025 6.32979 3.1234 6.36851 3.18013C6.41319 3.25178 6.43106 3.25775 6.55319 3.23984C6.62766 3.2279 6.69617 3.20103 6.71106 3.17714C6.72298 3.15326 6.75872 3.13236 6.79149 3.13236C6.82426 3.13236 6.86 3.15326 6.87489 3.17714C6.88681 3.207 6.86894 3.2488 6.82128 3.29657C6.77362 3.34434 6.75574 3.38613 6.77064 3.41599C6.78255 3.43987 6.87489 3.48764 6.97915 3.52049C7.08043 3.55333 7.1817 3.5802 7.20255 3.5802C7.22043 3.5802 7.2383 3.54437 7.2383 3.4966C7.2383 3.42793 7.21745 3.40405 7.08936 3.34135C7.00596 3.29955 6.93149 3.2488 6.92553 3.2279C6.9166 3.20998 6.91957 3.1861 6.93447 3.18013C6.94638 3.17416 7.00596 3.15624 7.06851 3.13534C7.17574 3.1025 7.17872 3.09951 7.17277 2.9771C7.16383 2.86067 7.15191 2.84275 7.03872 2.78304L6.91064 2.71437C6.91064 2.40984 6.89872 2.32624 6.88085 2.32624C6.86298 2.32624 6.78553 2.35908 6.70213 2.40088C6.6217 2.44268 6.52043 2.47552 6.47872 2.47552C6.40723 2.47552 6.40426 2.46955 6.42213 2.31728L6.44 2.16203L5.95745 2.05753L5.74894 2.20682V2.68451C5.41532 2.77408 5.4034 2.78603 5.32596 2.94128C5.25149 3.0816 5.23064 3.1025 5.15319 3.1025H5.06383V2.7293C4.81064 2.69347 4.69447 2.65764 4.64681 2.6248C4.59021 2.58599 4.54553 2.52329 4.52766 2.45164C4.51277 2.39192 4.49787 2.3352 4.49787 2.32624C4.49489 2.31728 4.62596 2.2307 4.78681 2.13516C4.94766 2.03664 5.15021 1.93214 5.2366 1.90228L5.39149 1.84854C5.43915 1.96498 5.45106 2.00976 5.45106 2.02768C5.45106 2.04261 5.48383 2.05753 5.52553 2.05753C5.57518 2.05753 5.60496 2.03763 5.61489 1.99782C5.62383 1.96199 5.65362 1.93811 5.68936 1.93811C5.72213 1.93811 5.75489 1.92318 5.76383 1.90825C5.77277 1.89034 5.76681 1.87243 5.74894 1.86347C5.73106 1.85451 5.71915 1.82167 5.71915 1.78883C5.71915 1.74106 5.74 1.72912 5.81745 1.72912C5.88596 1.72912 5.94255 1.69926 6.01702 1.62761C6.11234 1.53505 6.14213 1.52311 6.34468 1.5052C6.55915 1.48728 6.57106 1.49027 6.67234 1.57386L6.7766 1.66045C6.43404 1.83958 6.32979 1.90527 6.32383 1.92318C6.32085 1.93811 6.42511 1.97692 6.55915 2.00976C6.69617 2.03962 6.82425 2.06948 6.84511 2.07545C6.86298 2.08142 6.90766 2.03365 6.94043 1.96797C6.99702 1.85451 7.00596 1.84854 7.14298 1.84854C7.26213 1.85153 7.28894 1.83958 7.3217 1.7739C7.33957 1.7321 7.35745 1.69329 7.35745 1.68433C7.35745 1.67538 7.31574 1.66343 7.26809 1.65448C7.18766 1.63955 7.17872 1.63059 7.17872 1.52609C7.1817 1.46638 7.16383 1.4007 7.14298 1.38279C7.12213 1.36487 6.97021 1.29023 6.80638 1.22156L6.50851 1.09318C6.15702 1.13796 6.01404 1.17976 5.95149 1.21559C5.84426 1.27829 5.8383 1.29023 5.8383 1.43056V1.57984C5.62979 1.57984 5.59404 1.56491 5.57021 1.52012C5.55234 1.48728 5.54043 1.43653 5.54043 1.40667C5.54043 1.3798 5.58511 1.32009 5.63872 1.2753C5.71915 1.20663 5.72809 1.18872 5.68936 1.16185C5.66553 1.14692 5.56426 1.13199 5.46596 1.13199C5.36468 1.13199 5.26638 1.14692 5.23957 1.16782C5.21277 1.18872 5.18298 1.22753 5.17702 1.25142C5.16809 1.27829 5.19192 1.30814 5.23957 1.32904C5.29915 1.35591 5.31404 1.38279 5.31106 1.4425C5.30213 1.51117 5.28723 1.52311 5.15021 1.54102C5.05191 1.55595 4.98936 1.58282 4.97149 1.61566C4.95064 1.66045 4.90596 1.6694 4.73617 1.6694C4.5783 1.6694 4.52468 1.65746 4.51277 1.62462C4.50383 1.60074 4.49787 1.54699 4.49787 1.5052C4.49787 1.43653 4.50979 1.43056 4.67064 1.41264C4.81362 1.39771 4.8583 1.3798 4.95064 1.28725C5.01319 1.22753 5.05489 1.16782 5.04894 1.15289C5.04 1.14095 5.00426 1.13199 4.96851 1.13199C4.92979 1.13199 4.86723 1.16484 4.82553 1.20663C4.76596 1.26635 4.72128 1.28127 4.61106 1.28127C4.47702 1.28127 4.45915 1.27232 4.35787 1.14692C4.24468 1.01257 4.2417 1.00958 4.06596 1.01257C3.90511 1.01257 3.86936 1.02451 3.73532 1.12304C3.65191 1.18573 3.58043 1.24843 3.57745 1.26635ZM11.1226 2.15606C11.0868 2.20084 11.066 2.26056 11.0719 2.30235C11.0799 2.34813 11.1106 2.37799 11.1643 2.39192C11.2179 2.40387 11.2626 2.44865 11.3043 2.53225L11.3638 2.65167C11.5664 2.55912 11.623 2.54718 11.6319 2.56509C11.6409 2.583 11.6557 2.66361 11.6677 2.74721L11.6915 2.89948C11.4383 2.86664 11.3043 2.86664 11.2298 2.87559C11.1077 2.89351 11.0868 2.91142 10.9766 3.07264C10.8604 3.24581 10.8545 3.2488 10.6847 3.27268C10.5209 3.29657 10.5119 3.30254 10.4851 3.40106C10.4672 3.45779 10.4553 3.52944 10.4553 3.55631C10.4553 3.58916 10.4821 3.61304 10.5209 3.61603C10.5774 3.62498 10.5864 3.63991 10.5804 3.71455C10.5745 3.76232 10.5626 3.81308 10.5506 3.82502C10.5387 3.83696 10.4821 3.83398 10.4255 3.81606C10.3689 3.80113 10.2736 3.78621 10.217 3.78621C10.1604 3.78322 10.0591 3.79815 9.99362 3.81606C9.8983 3.83995 9.86851 3.86682 9.83872 3.94444C9.81191 4.02207 9.81191 4.08178 9.83872 4.21912C9.86851 4.36243 9.88936 4.40124 9.95489 4.43409C10.0055 4.46096 10.1336 4.47588 10.2826 4.47588C10.4196 4.47588 10.5447 4.46394 10.5596 4.452C10.5774 4.44006 10.6072 4.3893 10.6311 4.34153C10.6519 4.29078 10.7383 4.16239 10.8247 4.05193L10.9766 3.85488C11.2179 3.8907 11.2357 3.88473 11.3311 3.78919L11.4353 3.6847C11.477 3.83696 11.5485 3.90265 11.7421 4.03401C11.8881 4.12955 12.0043 4.21614 12.0043 4.22808C12.0072 4.24301 11.9864 4.26988 11.9596 4.28779C11.9357 4.30869 11.8791 4.32362 11.8374 4.31765C11.7957 4.31466 11.757 4.32063 11.7481 4.33257C11.7421 4.3475 11.766 4.37736 11.8017 4.40124C11.8404 4.42513 11.897 4.44603 11.9298 4.44603C11.9626 4.44603 12.0191 4.42513 12.0549 4.40124C12.0996 4.37139 12.1234 4.32959 12.1204 4.27286C12.1204 4.22808 12.1234 4.16837 12.1294 4.14149C12.1353 4.10567 12.0817 4.0579 11.9477 3.97729C11.8017 3.8907 11.7481 3.83995 11.7183 3.75934C11.6974 3.70261 11.6885 3.64588 11.6974 3.63095C11.7094 3.61901 11.7779 3.61005 11.8523 3.61005C11.9715 3.61304 12.0102 3.63095 12.1592 3.75934C12.32 3.89667 12.3319 3.91757 12.3319 4.03401C12.3289 4.14149 12.3498 4.18628 12.4511 4.30272C12.5166 4.38333 12.5791 4.44006 12.5911 4.43409C12.606 4.42811 12.6298 4.35049 12.6506 4.2639C12.6774 4.15045 12.7102 4.08775 12.7638 4.04894C12.8055 4.02207 12.8532 3.99818 12.8681 3.99818C12.883 3.99818 12.9068 4.06984 12.9187 4.15344C12.9306 4.2639 12.9634 4.34153 13.023 4.40721C13.0826 4.47887 13.1332 4.50574 13.1957 4.50574C13.2434 4.50574 13.2851 4.49678 13.2851 4.48185C13.2851 4.46991 13.2523 4.38034 13.2136 4.28182C13.1749 4.18329 13.0766 3.98027 12.9991 3.83398C12.9217 3.68768 12.7847 3.45182 12.6953 3.31149C12.606 3.17117 12.4451 2.94426 12.3379 2.80394C12.2277 2.66361 12.0043 2.41282 11.8404 2.24264C11.6766 2.07545 11.5366 1.93811 11.5277 1.9411C11.5187 1.9411 11.4383 1.97394 11.3489 2.01275C11.2596 2.05156 11.1583 2.11725 11.1226 2.15606ZM10.2498 2.48149C10.2319 2.50239 10.217 2.54718 10.217 2.58002C10.217 2.61883 10.2647 2.66959 10.3511 2.72034C10.4374 2.77408 10.4851 2.82484 10.4851 2.86365C10.4851 2.90346 10.4553 2.93332 10.3957 2.95322C10.3183 2.98009 10.3064 2.99502 10.3123 3.07862L10.3213 3.17714C10.6966 3.16221 10.7532 3.14728 10.8068 3.09354C10.8426 3.05772 10.8723 3.02189 10.8723 3.01293C10.8723 3.00397 10.8306 2.97412 10.783 2.94426C10.7323 2.91739 10.6609 2.84275 10.6221 2.78005C10.5834 2.72034 10.5417 2.62182 10.5298 2.56509C10.5179 2.50836 10.497 2.44566 10.4851 2.42775C10.4732 2.40984 10.4255 2.40685 10.3719 2.41879C10.3213 2.43074 10.2677 2.45761 10.2498 2.48149ZM9.89234 2.87261C9.85064 2.94725 9.82979 3.0189 9.83872 3.04876C9.85064 3.07862 9.88638 3.1025 9.91915 3.1025C9.95191 3.1025 10.0443 3.05473 10.1277 2.998C10.2379 2.92038 10.2766 2.87559 10.2766 2.81887C10.2766 2.77707 10.2557 2.73826 10.2319 2.7293C10.2081 2.72034 10.1574 2.71736 10.1187 2.71736C10.083 2.72034 10.0323 2.72631 10.0085 2.73228C9.98468 2.73826 9.93106 2.80095 9.89234 2.87261ZM6.3417 3.63991C6.29106 3.63991 6.2434 3.65185 6.23745 3.66977C6.23149 3.68768 6.2434 3.72052 6.26128 3.74441C6.28213 3.77128 6.31787 3.79218 6.33575 3.78919C6.3566 3.78919 6.43106 3.73545 6.49958 3.66977L6.62766 3.55034C6.4966 3.55034 6.45489 3.56826 6.44894 3.59513C6.44 3.622 6.3983 3.63991 6.3417 3.63991ZM5.95149 3.76531C5.95745 3.80711 5.97234 3.81308 6.02 3.79516C6.05277 3.78322 6.0766 3.75635 6.07064 3.73247C6.06468 3.70858 6.04681 3.6847 6.02894 3.67872C6.01106 3.67275 5.98723 3.67872 5.97234 3.68768C5.95745 3.69962 5.94851 3.73545 5.95149 3.76531ZM10.6191 4.58038C10.5477 4.62815 10.4911 4.64009 10.2915 4.63412C10.0711 4.62815 10.0413 4.63412 9.87447 4.72668L9.69574 4.8252L9.66596 5.23124C8.98979 5.72984 8.95106 5.76866 8.95702 5.84031C8.96298 5.88808 8.97192 5.94182 8.98085 5.95973C8.98979 5.98063 9.02851 5.99855 9.07021 5.99855C9.13277 5.99855 9.1417 6.01049 9.12979 6.06423C9.12085 6.10304 9.11489 6.15679 9.11489 6.18366C9.11489 6.21351 9.08809 6.24337 9.05532 6.25233C9.0017 6.26725 8.99574 6.29114 8.99574 6.56581V6.86438L9.65106 7.61078C9.85957 7.61078 9.92511 7.59884 9.93404 7.58092C9.94298 7.56301 10.0621 7.55107 10.2021 7.55107C10.4285 7.55107 10.4643 7.54211 10.5447 7.47643C10.6072 7.42269 10.6698 7.40179 10.7621 7.40179C10.8634 7.40179 10.9051 7.4197 10.9766 7.49136C11.0511 7.566 11.0987 7.58391 11.2715 7.60182C11.4115 7.61974 11.48 7.64064 11.4919 7.67049C11.5009 7.69438 11.4949 7.82873 11.48 7.96308L11.4532 8.21388C11.8106 8.84683 11.9149 9.04686 11.9149 9.06478C11.9149 9.08568 11.8613 9.21107 11.7957 9.34244C11.7004 9.5365 11.6796 9.60219 11.6915 9.69176C11.7034 9.76341 11.7421 9.83805 11.7987 9.89478C11.8821 9.98136 11.8851 9.9933 11.8851 10.2531V10.5218C12.1472 10.8741 12.1502 10.889 12.1502 11.089C12.1502 11.2055 12.1591 11.307 12.1681 11.3189C12.177 11.3338 12.2217 11.298 12.2664 11.2443C12.3111 11.1935 12.4034 11.0741 12.4719 10.9845C12.5404 10.895 12.6655 10.7069 12.7519 10.5665C12.8383 10.4262 12.9932 10.1366 13.0945 9.92463C13.1987 9.71266 13.3298 9.40215 13.3864 9.23794C13.443 9.07373 13.5234 8.80503 13.5651 8.64082C13.6068 8.47661 13.6634 8.2079 13.6932 8.0437C13.7319 7.8138 13.7438 7.57197 13.7468 6.99873C13.7468 6.41355 13.7349 6.18366 13.6932 5.93884C13.6634 5.76567 13.6098 5.50294 13.574 5.35664L13.5055 5.08793C13.0438 5.07002 13.023 5.06405 12.883 4.9506C12.737 4.83714 12.7311 4.83416 12.5613 4.85804C12.3945 4.87894 12.3915 4.87894 12.3915 4.97448C12.3915 5.06106 12.3826 5.07301 12.3081 5.07301C12.2634 5.07301 12.2128 5.06106 12.1979 5.04315C12.183 5.02524 12.0281 4.97448 11.8553 4.92671L11.5426 4.84311C11.5157 4.48783 11.5038 4.46096 11.4532 4.45797C11.4204 4.45498 11.2387 4.46693 11.0511 4.48783C10.8009 4.51171 10.6847 4.53858 10.6191 4.58038Z" fill="#005D71"/>
</svg>
