<svg xmlns="http://www.w3.org/2000/svg" width="25" height="25" viewBox="0 0 25 25">
    <defs>
        <style>.a,.b{fill:#fff;}.a{stroke:rgba(0,0,0,0);stroke-miterlimit:10;}.b{fill-rule:evenodd;}</style>
    </defs>
    <g transform="translate(0.5 0.5)">
        <path class="a" d="M20.161,24H3.84A3.844,3.844,0,0,1,0,20.16V3.84A3.845,3.845,0,0,1,3.84,0h16.32A3.845,3.845,0,0,1,24,3.84V20.16A3.844,3.844,0,0,1,20.161,24ZM9.177,6.634,5.352,8.819,5.37,13.2l.017,4.344,0,4.382,3.808-2.206V15.352l9.5-5.41L18.7,5.57l-5.892-3.5h-7.5L5.3,2.08l9.577,5.678.007,0L10.7,10.144h0l3.952-2.258-5.081,2.9-.077.044-.054.031-.018.01-.031.018-.075.043-.008,0-.137.079Z"/>
    </g>
</svg>