<svg xmlns="http://www.w3.org/2000/svg" width="134.462" height="25" viewBox="0 0 134.462 25">
    <defs>
        <style>.a,.b{fill:#fff;}.a{stroke:rgba(0,0,0,0);stroke-miterlimit:10;}.b{fill-rule:evenodd;}</style>
    </defs>
    <g transform="translate(0.5 0.5)">
        <path class="a" d="M20.161,24H3.84A3.844,3.844,0,0,1,0,20.16V3.84A3.845,3.845,0,0,1,3.84,0h16.32A3.845,3.845,0,0,1,24,3.84V20.16A3.844,3.844,0,0,1,20.161,24ZM9.177,6.634,5.352,8.819,5.37,13.2l.017,4.344,0,4.382,3.808-2.206V15.352l9.5-5.41L18.7,5.57l-5.892-3.5h-7.5L5.3,2.08l9.577,5.678.007,0L10.7,10.144h0l3.952-2.258-5.081,2.9-.077.044-.054.031-.018.01-.031.018-.075.043-.008,0-.137.079Z"/>
        <path class="b" d="M251.615,1720.4a4.642,4.642,0,0,1,1.87.381,4.994,4.994,0,0,1,1.538,1.031,4.808,4.808,0,0,1,1.042,1.529,4.793,4.793,0,0,1,0,3.739,4.7,4.7,0,0,1-1.042,1.519,5.108,5.108,0,0,1-1.538,1.022,4.639,4.639,0,0,1-1.87.38H250.1l-1.48-2.726h3a2,2,0,0,0,.808-.166,1.88,1.88,0,0,0,.652-.467,2.355,2.355,0,0,0,.438-.721,2.5,2.5,0,0,0,.165-.925,2.145,2.145,0,0,0-.165-.828,2.575,2.575,0,0,0-.438-.71,2.182,2.182,0,0,0-.652-.506,1.753,1.753,0,0,0-.808-.195h-3.447v11.275h-2.707V1720.4Zm9.859,3.74a4.942,4.942,0,0,0-1.977.4,5.066,5.066,0,0,0-2.687,2.678,5,5,0,0,0,0,3.914,5.141,5.141,0,0,0,1.081,1.6,4.976,4.976,0,0,0,1.606,1.071,5.044,5.044,0,0,0,1.977.389,4.973,4.973,0,0,0,2.288-.548,4.9,4.9,0,0,0,1.782-1.531l.039-.042-2.259-.993-.039-.02-.019.02a1.8,1.8,0,0,1-.828.652,3.041,3.041,0,0,1-.964.146,2.106,2.106,0,0,1-1.052-.263,2.886,2.886,0,0,1-.8-.649,2.824,2.824,0,0,1-.506-.863,2.662,2.662,0,0,1-.175-.922,2.917,2.917,0,0,1,.195-1.078,2.653,2.653,0,0,1,.535-.854,2.576,2.576,0,0,1,.808-.571,2.359,2.359,0,0,1,.993-.214,2.258,2.258,0,0,1,1.49.526,2.9,2.9,0,0,1,.906,1.344h-3.7l1.246,1.986h4.946l.019-.039a5.013,5.013,0,0,0,.117-1.09,4.862,4.862,0,0,0-.4-1.967,5.091,5.091,0,0,0-2.677-2.678,4.825,4.825,0,0,0-1.947-.4Zm13.636.545-.234.39-.993,1.772-.019-.02a2.8,2.8,0,0,0-2.337-.2,2.6,2.6,0,0,0-.8.467,2.865,2.865,0,0,0-.594.711,2.5,2.5,0,0,0-.321.876v5.355h-2.648V1724.3h2.648v1.266a3.5,3.5,0,0,1,3.018-1.421,5,5,0,0,1,2.259.545Zm4.581,1.285h2.863v2.162h-1.675l-1.188-2.162Zm2.863-5.57H280.43a3.6,3.6,0,0,0-1.421.282,3.635,3.635,0,0,0-1.938,1.938,3.539,3.539,0,0,0-.282,1.4v1.947h-1.4v2.162h1.4v5.9h2.59v-9.892a1.844,1.844,0,0,1,.273-1.072.893.893,0,0,1,.779-.389h2.123V1720.4Zm5.535,3.74a4.825,4.825,0,0,1,1.948.4,5.091,5.091,0,0,1,2.678,2.678,4.861,4.861,0,0,1,.4,1.967,5.013,5.013,0,0,1-.117,1.09l-.019.039H288.03l-1.246-1.986h3.7a2.9,2.9,0,0,0-.906-1.344,2.258,2.258,0,0,0-1.49-.526,2.358,2.358,0,0,0-.993.214,2.577,2.577,0,0,0-.808.571,2.652,2.652,0,0,0-.536.854,2.92,2.92,0,0,0-.195,1.078,2.662,2.662,0,0,0,.175.922,2.83,2.83,0,0,0,.506.863,2.889,2.889,0,0,0,.8.649,2.1,2.1,0,0,0,1.051.263,3.043,3.043,0,0,0,.964-.146,1.8,1.8,0,0,0,.827-.652l.02-.02.039.02,2.259.993-.039.042a4.9,4.9,0,0,1-1.782,1.531,4.974,4.974,0,0,1-2.288.548,5.043,5.043,0,0,1-1.976-.389,4.975,4.975,0,0,1-1.607-1.071,5.142,5.142,0,0,1-1.081-1.6,5,5,0,0,1,0-3.914,5.066,5.066,0,0,1,2.687-2.678,4.941,4.941,0,0,1,1.976-.4Zm12.8,6.173,2.1,1.383-.019.02a5,5,0,0,1-4.343,2.492,4.859,4.859,0,0,1-1.967-.4,5.091,5.091,0,0,1-2.677-2.677,4.949,4.949,0,0,1,0-3.9,5.091,5.091,0,0,1,2.677-2.677,4.859,4.859,0,0,1,1.967-.4,5,5,0,0,1,4.343,2.493l.019.02-2.123,1.383-.019-.02a2.848,2.848,0,0,0-.906-1.168,2.13,2.13,0,0,0-1.314-.448,2.2,2.2,0,0,0-.984.224,2.48,2.48,0,0,0-.789.6,2.978,2.978,0,0,0-.526.876,2.878,2.878,0,0,0-.195,1.062,2.8,2.8,0,0,0,.195,1.051,2.732,2.732,0,0,0,.526.847,2.384,2.384,0,0,0,1.772.769,2.3,2.3,0,0,0,1.314-.4,2.51,2.51,0,0,0,.906-1.12l.019-.039.02.019Zm9.352-5v2.161H308.8l-1.207-2.161Zm-2.979,5.395v-8.919h-2.59v3.525h-1.4v2.161h1.4v2.921a3.478,3.478,0,0,0,.292,1.421,3.779,3.779,0,0,0,.789,1.159,3.608,3.608,0,0,0,1.168.779,3.667,3.667,0,0,0,1.431.282h1.889v-2.259h-1.889a1.065,1.065,0,0,1-.769-.312A1.015,1.015,0,0,1,307.26,1730.705Z" transform="translate(-214.673 -1715.306)"/>
        <path class="b" d="M661.675,1720.4a4.642,4.642,0,0,1,1.869.381,4.987,4.987,0,0,1,1.538,1.031,4.806,4.806,0,0,1,1.042,1.529,4.792,4.792,0,0,1,0,3.739,4.7,4.7,0,0,1-1.042,1.519,5.1,5.1,0,0,1-1.538,1.022,4.64,4.64,0,0,1-1.869.38h-1.519l-1.48-2.726h3a2,2,0,0,0,.808-.166,1.877,1.877,0,0,0,.652-.467,2.347,2.347,0,0,0,.438-.721,2.492,2.492,0,0,0,.166-.925,2.139,2.139,0,0,0-.166-.828,2.564,2.564,0,0,0-.438-.71,2.178,2.178,0,0,0-.652-.506,1.754,1.754,0,0,0-.808-.195h-3.447v11.275h-2.707V1720.4Z" transform="translate(-555.295 -1715.306)"/>
        <path class="b" d="M731.7,1742.754v9.737h-2.551v-4.882a2.612,2.612,0,0,0-.214-1.055,2.738,2.738,0,0,0-2.512-1.638,2.583,2.583,0,0,0-1.052.214,3.017,3.017,0,0,0-.866.578,2.549,2.549,0,0,0-.594.859,2.668,2.668,0,0,0-.214,1.065,2.551,2.551,0,0,0,.214,1.035,2.68,2.68,0,0,0,.594.859,2.907,2.907,0,0,0,.866.588,2.573,2.573,0,0,0,1.052.215,2.279,2.279,0,0,0,1.032-.215h.019v.039l.974,1.733-.02.02a3.727,3.727,0,0,1-2.356.74,4.912,4.912,0,0,1-1.948-.389,5,5,0,0,1-1.6-1.071,5.149,5.149,0,0,1-1.081-1.6,5,5,0,0,1,0-3.914,5.09,5.09,0,0,1,2.678-2.677,4.822,4.822,0,0,1,1.948-.4,3.96,3.96,0,0,1,1.772.376,3.67,3.67,0,0,1,1.3,1.091v-1.312Z" transform="translate(-609.725 -1733.743)"/>
        <path class="b" d="M793.983,1751.012l1.889-1.324-2.512-7.069v-.02h-2.785l3.408,8.413Z" transform="translate(-667.48 -1733.744)"/>
        <path class="b" d="M808.606,1742.6l-.02.039-.643,1.743-.584,1.587q-.974,2.727-1.743,4.684a14.889,14.889,0,0,1-1.645,3.183,5.507,5.507,0,0,1-1.977,1.83,6,6,0,0,1-2.755.565H799.2v-2.648h.039q.506,0,.906-.039a2.805,2.805,0,0,0,.73-.165,2.31,2.31,0,0,0,.614-.35,2.7,2.7,0,0,0,.536-.594,6.254,6.254,0,0,0,.506-.856q.253-.507.526-1.208t.6-1.626q.331-.925.74-2.094.311-.876.662-1.87t.76-2.162v-.019Z" transform="translate(-674.644 -1733.743)"/>
    </g>
</svg>